<svg id="Layer_1" data-name="Layer 1" xmlns="http://www.w3.org/2000/svg" viewBox="0 0 842.37 700.98"><defs><style>.cls-1{fill:#cdbef0;}</style></defs><path class="cls-1" d="M94.64,153.55v37.78H160.1v21.13H73.5V73.5h86.6V94.64H94.64v37.78h45.82v21.13Z"/><path class="cls-1" d="M264.83,212.46H243.7V139.9l-6-6h-6.36l-25.43,6.36v72.19H184.78V112.78h21.14v24.69l12-18,13.27-6.73h13.47l13.47,6.73,6.73,20Z"/><path class="cls-1" d="M382.66,73.5v139H361.52V188.52l-5.42,10.66-6.55,6.55-13.28,6.73H322.81l-13.28-6.73-13.28-13.28-6.73-19.82v-20l6.73-19.83,13.28-13.28,13.28-6.73h13.46l13.28,6.73,6.55,6.55,5.42,10.66V73.5Zm-72,79.49v19.26l5.05,15.34,7.48,3.74h12.91L361.52,185v-44.7l-25.43-6.36H323.18l-7.48,3.74Z"/><path class="cls-1" d="M73.5,264.64H94.64V382.47h58.91V403.6H73.5Z"/><path class="cls-1" d="M258.28,403.6H244.07l-12.72-7.29-7.29-12.72v-3.74l-5.24,10.29-6.73,6.73-13.28,6.73H185.34l-13.46-6.73-6.73-13.47V369.94l6.73-13.47,6.73-6.73,19.83-6.55h25.43L219,328.79l-7.48-3.74h-18.7v13.09H171.69v-14l6.73-13.47,13.47-6.73h20l13.28,6.73,13.28,13.28,6.73,19.82v38.72h13.09Zm-59.66-21.13,25.44-6.36V364.33H198.81l-12.53,6.36v11.78Z"/><path class="cls-1" d="M297.56,327.86,303,317.2l6.54-6.55,13.28-6.73h13.47l13.28,6.73,13.27,13.28,6.74,19.82v20l-6.74,19.82-13.27,13.28-13.28,6.73H322.81l-13.28-6.73L303,390.32l-5.43-10.66v56.67H276.43V303.92h21.13Zm38.34-2.81H323l-25.44,6.36v44.7L323,382.47h12.9l7.48-3.74,5.05-15.34V344.13l-5.05-15.34Z"/><path class="cls-1" d="M441.57,303.92v21.13H421.94V403.6H400.8V325.05H381.16V303.92H400.8V264.64h21.14v39.28Z"/><path class="cls-1" d="M486.46,303.92h20l13.28,6.73L533,323.93l6.73,19.82v20L533,383.59l-13.28,13.28-13.28,6.73h-20l-13.28-6.73L459.9,383.59l-6.73-19.82v-20l6.73-19.82,13.28-13.28Zm-12.16,40v19.64l5.24,15.15,7.29,3.74H506.1l7.29-3.74,5.24-15.15V343.94l-5.24-15.15-7.29-3.74H486.83l-7.29,3.74Z"/><path class="cls-1" d="M585.58,327.86,591,317.2l6.54-6.55,13.28-6.73H624.3l13.28,6.73,13.28,13.28,6.73,19.82v20l-6.73,19.82-13.28,13.28L624.3,403.6H610.83l-13.28-6.73L591,390.32l-5.43-10.66v56.67H564.45V303.92h21.13Zm38.34-2.81H611l-25.44,6.36v44.7L611,382.47h12.9l7.49-3.74,5.05-15.34V344.13l-5.05-15.34Z"/><path class="cls-1" d="M94.64,535.84v58.91H73.5v-139h59.85l13.09,6.55,7.11,7.1,6.55,13.09v26.56l-6.55,13.09-7.11,7.11-13.09,6.55Zm0-21.14H133l6-6V482.91l-6-6H94.64Z"/><path class="cls-1" d="M205,495.06h20l13.28,6.74,13.28,13.28,6.73,19.82v20l-6.73,19.83L238.27,588,225,594.75H205L191.7,588l-13.28-13.28-6.73-19.83v-20l6.73-19.82L191.7,501.8Zm-12.15,40v19.64l5.23,15.15,7.3,3.74h19.26l7.29-3.74,5.24-15.15V535.09l-5.24-15.15-7.29-3.74H205.36l-7.3,3.74Z"/><path class="cls-1" d="M306.73,562.21,329,495.06h20.94v.75L317,594.75H296.25l-32.91-98.94v-.75h20.94Z"/><path class="cls-1" d="M408.29,594.75h-20L375,588l-13.27-13.28L355,554.91v-20l6.74-19.82L375,501.8l13.28-6.74h20l13.28,6.74,6.73,6.73L435,521.81v27.12H376.12v5.61l5.05,15.34,7.48,3.74h19.26l6-6v-7.11H435V568l-6.54,13.27-6.92,6.92Zm5.61-60.41V522.18l-6-6H388.65l-7.48,3.74-4.87,14.4Z"/><path class="cls-1" d="M526.67,495.06V516.2H513l-12.9,6.55-19.27,12.71v59.29H459.72V495.06h21.13V530.6l5.24-15.52,13.28-13.28,13.28-6.74Z"/><path class="cls-1" d="M598.68,495.06V516.2H579v78.55H557.91V516.2H538.27V495.06h19.64V455.79H579v39.27Z"/><path class="cls-1" d="M610.27,495.06h21l26.56,59.67,24.68-59.67h20.95v.75L650.86,627.48h-21v-.75l15.9-42.27-35.54-88.65Z"/><path class="cls-1" d="M768.87,593.25v21.14h-73.5V593.25Z"/></svg>