<svg id="Layer_1" data-name="Layer 1" xmlns="http://www.w3.org/2000/svg" viewBox="0 0 215.49 503.66"><defs><style>.cls-1{fill:#b4a5ff;}</style></defs><path class="cls-1" d="M73.68,477.72c1.21-35.63,1.55-71.27,1.75-106.92.23-40.75.45-81.51,1.22-122.26q.18-9,.37-18l.21-8.87c.07-3,1.1-7.46-.92-9.9-.35-.42-.72-.8-1.06-1.22l-.65-.79c.4.5,0,0,0-.07-.84-1.1-1.63-2.25-2.39-3.41-1.71-2.63-3.27-5.37-4.75-8.14C60,184.25,54.34,169.45,48.79,154.77s-10.65-29.42-16.28-44c-2.08-5.42-5-10.78-6.49-16.38-.85-3.16-1.5-7.06-.2-10.19,1.08-2.59,4-3.06,6.64-1.39,3.33,2.1,5.72,5.79,7.74,9.09s3.62,6.43,5.26,9.74c3.49,7,6.68,14.17,10.37,21.08,2.7,5.07,5.88,11.3,11,14.41a8.57,8.57,0,0,0,7,1.08,7.79,7.79,0,0,0,3.74-2.46c1.14-1.46.76-3.29.67-5l-.27-5L73.89,49c-.25-4.82-1.06-9.94-.16-14.73a17.47,17.47,0,0,1,1.6-5.06,4.94,4.94,0,0,1,2.39-2.53c5.76-1.75,6,12.63,6.32,16.16,1.33,16.18,1.75,32.43,2.65,48.64.4,7.31.85,14.64,1.7,21.91.56,4.83,1,10,2.85,14.55,1.53,3.83,4.4,6.26,8.7,5.35,3.5-.74,5.86-3.72,7.28-6.82,4.28-9.29,4.86-20.41,5.76-30.44,1.11-12.27,1.66-24.59,3.13-36.81.27-2.3.53-4.19,1-6.92a57.19,57.19,0,0,1,1.43-6.22c.25-.81.53-1.61.83-2.4s-.39.78,0,.06c.08-.17.15-.34.24-.5.17-.33.34-.66.53-1s.79-1.11.33-.54.26-.19.32-.3c.36-.77-.58.32,0,0l.25-.15c.25-.12-.31.33-.32.14a1.21,1.21,0,0,1,.34-.09c.51.17-1.13,0,.14,0,.27,0,.54,0,.81,0,1.24,0-.68-.1.46,0a3.48,3.48,0,0,1,.65.19c-.77-.28.13.08.26.18a1.33,1.33,0,0,1,.4.44c.12.19.23.38.34.57.51.93-.19-.66.17.39a14.82,14.82,0,0,1,.49,1.85,21.83,21.83,0,0,1,.3,4.34c0,7.71-1.61,15.33-2.29,23-.46,5.21-.55,10.45-1,15.66-.59,6.37-1.34,12.73-1.69,19.11-.34,6.07-.51,12.41.61,18.41.89,4.76,4,9.29,9.19,9.64,9,.6,12.2-10.87,13.12-17.77.81-6.15,1.34-12.35,2-18.52.76-7.14,1.58-14.27,2.87-21.33.58-3.19,1.25-6.36,2.14-9.47.37-1.28.77-2.56,1.23-3.81.13-.34.26-.69.4-1-.06.15-.26.6,0-.07s.55-1.19.87-1.76.52-.85.77-1.27c.55-.89-.32.17.41-.51.3-.29,1.09-.91.29-.38l.56-.36.28-.15-.41.18c0-.08.59-.11.59-.16,0,.36-.94,0-.38.06,1.12.12-.11-.1.2,0,.85.26-.85,0,.14.11-.62-.08-.22-.43.17.26-.72-1.27.84,1.71.64,1.25s.1.27.11.32c.09.28.19.55.28.83.17.56.32,1.12.46,1.69a42,42,0,0,1,1.07,7.63c1,14.16-.25,28.57-1.76,42.64-.69,6.46-1.62,11.26-2.25,17.53-.37,3.67-.13,8.09,2.86,10.69,2.56,2.22,6.34,2,9.16.39,4.3-2.5,6.85-8.56,9.16-12.71,3.46-6.22,6.76-12.62,11-18.36a33,33,0,0,1,2.58-3.09,12.51,12.51,0,0,1,2.56-2.2c.28-.17,1.6-.7.75-.43a3.38,3.38,0,0,1,.54-.17c.62-.11.58.13.08,0,.69.23-.86-.18-.5-.09a3,3,0,0,1-1.14-.64c.16.15-.68-1-.3-.34.2.35-.45-1.15-.17-.32.15.43,0,1,0-.27,0,.28.06.57.06.86,0,.59,0,1.17-.07,1.75,0,.34-.07.67-.11,1,.14-1.32,0,.2-.09.55-1.64,9.89-5.26,19.57-8.65,29-4.4,12.17-9.28,24.36-14.31,36.13-4.3,10-8.71,20.09-13.76,29.78-.78,1.5-1.58,3-2.44,4.47-.32.53-.64,1.06-1,1.58s-1.28,1.8-.38.61a5.76,5.76,0,0,0-1.16,4.29l.07,12.7.31,54.87.42,74.94.41,71.92.26,46.4,0,6.54c0,4.85,7.56,4.86,7.53,0L157.28,454l-.36-64.19L156.48,312l-.38-67L156,222.83c0-3.45.25-7-.06-10.46,0-.15,0-.31,0-.45l-1.1,2.66c4.91-6.14,8-14.05,11.28-21.13,5.54-12,10.68-24.13,15.56-36.39,4.63-11.65,9.1-23.41,12.69-35.43a94,94,0,0,0,3.06-12.46c.46-2.92,1-6.47-.59-9.15-2.92-4.83-9.22-1.43-12.3,1.28-5.11,4.49-8.65,11-12,16.8-1.81,3.17-3.54,6.39-5.33,9.56a68.53,68.53,0,0,1-4.22,6.79c.22-.28-.58.65-.75.85s-.23.2-.33.32c-.49.53.74-.35.13-.1s.18.06-.69.3.73,0-.25.05c-.75,0,.53.27-.13,0,.24.11,1.08.28.45.18.26,0,.23.41,0,0,.3.63-.18-.56-.18-.6a3.72,3.72,0,0,1-.15-1,23.55,23.55,0,0,1,.41-5.36,369.6,369.6,0,0,0,3.86-40.93,134.3,134.3,0,0,0-.51-20.94c-.55-4.59-1.27-10.35-4.82-13.73s-9-2.31-12,1.27c-3.75,4.41-5.28,10.61-6.51,16.13-3.1,14-4,28.36-5.59,42.56-.12,1-.36,3-.42,3.52a38.25,38.25,0,0,1-.92,4.56c-.5,1.66-2.73,7.46-5,5.95-1.34-.89-1.62-3.32-1.81-4.76a72.23,72.23,0,0,1-.41-9.76c.07-6.53.73-13,1.38-19.54,1-10,1.32-19.94,2.58-29.87.89-7,2.51-15.08.32-22-1.84-5.79-8.42-9.93-14.3-6.79-3.19,1.71-4.76,5.38-5.83,8.64a78.92,78.92,0,0,0-2.78,14.38c-.77,6-1.26,12.06-1.73,18.1-.92,12.05-1.55,24.79-3.51,36.05A71.86,71.86,0,0,1,102,119c-.26.91-.54,1.82-.86,2.71-.15.41-.3.81-.47,1.21.43-1-.18.35-.32.63s-.38.71-.6,1-1,1.24-.16.31c-.2.22-.42.45-.61.68-.73.87.49-.27-.16.16-.44.3-1,.31.06.06-.25.06-.49.16-.75.22-.62.14,1,0,.38-.06a1.34,1.34,0,0,0-.4,0c-.38.18-1.59-.42,0,.08a1.87,1.87,0,0,1,.92.58c-.26-.31-.57-.88,0,.12-.14-.25-.33-.48-.46-.74l-.26-.54c-.35-.67.29.85,0,.08a44.54,44.54,0,0,1-1.59-6.34,182.56,182.56,0,0,1-2-19.06c-1.15-16.8-1.56-33.65-2.67-50.45-.24-3.58-.51-7.16-.86-10.74-.41-4.27-.83-8.56-2.59-12.53C86.79,22.25,83,19,78.27,19.08c-4.08.05-7.38,2.68-9.32,6.13a27.54,27.54,0,0,0-3.1,12.59c-.17,6.13.57,12.37.89,18.49l2.07,39,2,38.13,1.1-2.67c-.72.63.47-.57-.12.09-.11.12-1.07.56,0,0a1.68,1.68,0,0,1-.68.18s1-.13.32-.08.91.16.09,0a4,4,0,0,1-.69-.22c1,.34-.43-.32-.73-.53.7.5-.67-.63-.89-.86-.42-.43-.81-.87-1.19-1.33a38.67,38.67,0,0,1-2.54-3.66c-4.28-6.85-7.57-14.31-11.06-21.57-3.57-7.42-7.15-15-12.45-21.4C38.78,77.61,34.34,74,29,74.2a11.39,11.39,0,0,0-10.31,7.53c-3,7.75.31,16,3.35,23.1.27.63-.34-.82.12.27l.43,1.05c.25.61.5,1.22.74,1.83.64,1.58,1.26,3.18,1.88,4.77q2,5.23,3.94,10.49c6.13,16.64,12,33.36,18.67,49.81,3.56,8.82,7.28,17.6,11.59,26.08,3.21,6.31,6.74,12.69,11.53,18l-1.11-2.66q-1.45,58.11-1.75,116.24c-.2,31.56-.26,63.12-.72,94.67q-.39,26.21-1.25,52.39c-.17,4.85,7.37,4.84,7.53,0Z"/></svg>