<svg id="Layer_1" data-name="Layer 1" xmlns="http://www.w3.org/2000/svg" viewBox="0 0 468.88 434.96"><defs><style>.cls-1{fill:#ff5a00;}</style></defs><path class="cls-1" d="M438.51,176c-7,3.65-13.91,7.58-20.79,11.49q-15.5,8.83-30.87,17.89-18.84,11-37.62,22.21-20.34,12.08-40.62,24.23-19.92,11.91-39.81,23.89-17.88,10.75-35.75,21.55l-27.88,16.87-16.33,9.89c-.92.56-1.88,1.08-2.77,1.69a13.88,13.88,0,0,0-2.15,2q-3.37,3.51-6.65,7.11a209.93,209.93,0,0,0-18.64,22.91c-5.43,8-9.9,16.52-15.44,24.42a63.16,63.16,0,0,1-8.57,10.24,16.3,16.3,0,0,1-3.77,2.74l-.47.23c.06,0,.52-.2.12-.06s-.72.22-1.08.33c-.67.21.48.05-.21.05-.18,0-1.15-.06-.67,0s-.45-.14-.65-.2c.7.24,0,.12,0-.06-.1-.41.42.42.11.09-.61-.64.23.4,0,0s0-.24,0,.18c0-.21-.12-.4-.16-.61-.12-.64,0,.81,0,.12,0-.31,0-.65,0-1s.08-.65,0,0c0-.27.09-.55.15-.82a21,21,0,0,1,.54-2.07c.2-.64.42-1.27.66-1.9.15-.39.3-.78.46-1.16,0,0,0-.12.27-.64,2.82-6.41,6.46-12.43,9.23-18.86,1.88-4.34,5.1-12.38-.4-15.59-4.17-2.42-8.81,1.72-11.71,4.3-4.5,4-8.56,8.52-12.73,12.87a173,173,0,0,1-14.67,14.12,39.76,39.76,0,0,1-6.47,4.4l-.74.37c-.12.06-.91.4-.39.19s-.39.14-.5.18l-.81.25c-.27.08-1.54.31-.94.23s-.74,0-1.08,0c-.69,0,.36.08.21,0a3.87,3.87,0,0,0-.67-.17c-.55-.09-.23-.17.17.09a2.31,2.31,0,0,0-.61-.34c-.59-.14.26.3,0,0a4.57,4.57,0,0,0-.45-.43c-.42-.37-.12-.25.1.15a5.48,5.48,0,0,0-.35-.56s-.32-.72,0,0c.25.59.08.22,0,.11a2.39,2.39,0,0,0-.15-.54c-.24-.5,0-.23,0,.26,0-.26,0-.52,0-.78,0-1.14-.2.4,0-.43.14-.51.26-1,.43-1.52.07-.23.17-.46.26-.68-.23.57-.18.37,0,0,.29-.57.57-1.13.89-1.68a36.33,36.33,0,0,1,2.18-3.31c.64-.88.29-.43.94-1.24.48-.6,1-1.19,1.47-1.78q1.66-1.94,3.41-3.8c9.44-10.09,20.48-18.74,29.36-29.35,2.89-3.45,6.85-8.22,5.72-13.1-1.27-5.48-7.1-5.08-11.21-3.39-6.26,2.57-11.92,6.57-17.45,10.42-7.21,5-14.25,10.31-21.35,15.51-6.51,4.77-13,9.57-19.88,13.86a42.41,42.41,0,0,1-5.61,3.16c-1.78.77-4.34,1.77-6.28,1-4-1.6,0-7.15,1.68-9.08,2.93-3.34,6.61-5.87,10.17-8.48,3.78-2.76,7.63-5.44,11.49-8.1,8-5.52,16.13-10.91,24-16.62,6-4.35,12.48-8.84,17.25-14.58,3.09-3.73,6.23-10.36.48-13.46-2.4-1.3-5.29-1-7.88-.64a56.91,56.91,0,0,0-9,2.26C90,305.54,82,308.88,74,312.12s-16,6.58-24.22,9.22A43.65,43.65,0,0,1,43.63,323c-1.59.26-4,.53-5.33-.58-3.08-2.54,2.37-7.19,4.5-8.69,4.34-3.07,9.52-5.19,14.32-7.43,5.11-2.4,10.27-4.69,15.41-7,7.44-3.35,15.83-6.44,22.17-11.72,2.14-1.78,3.7-4.3,2.92-7.16a8.71,8.71,0,0,0-4.11-4.95c-4.32-2.64-9.89-3.35-14.8-4.05-6.93-1-13.92-1.61-20.88-2.39-3.65-.4-6-.69-9.39-1.23a76.57,76.57,0,0,1-8.88-1.88c-1.22-.35-2.41-.75-3.58-1.21-.22-.09.6.3-.07,0-.26-.14-.53-.25-.8-.39-.45-.24-.89-.5-1.33-.77-.19-.11-.36-.26-.55-.38s.53.54,0,0c-.18-.2-1-1.12-.65-.62s-.24-.5-.38-.71c.56.85.15.08,0-.47.25.68-.16.62.07.27a1.87,1.87,0,0,0,0-.58c-.1-.44-.23.78-.06.37.08-.19.08-.43.14-.62s.21-.6.3-.9c-.31,1-.09.24.2-.25s.78-.89.14-.24c.26-.27.49-.57.76-.84s.59-.52.88-.79c.52-.47-.35.25-.15.12s.37-.27.56-.39A25.33,25.33,0,0,1,37.51,256l1.24-.58c.2-.09-.72.28,0,0l.92-.36a53.53,53.53,0,0,1,6.8-2c2.72-.64,5.47-1.13,8.24-1.53l1-.14c-.67.09.11,0,.36,0,.81-.11,1.62-.2,2.43-.29,1.55-.18,3.11-.33,4.67-.46a357.45,357.45,0,0,1,41.66-.69c12.11.39,24.21,1.12,36.29,2.11,3.65.3,7.29.62,10.93,1,1.66.16,3.69.71,5.22-.19,2.51-1.49,4.8-3.67,7.12-5.44l18.19-13.89,27-20.61,33.27-25.43,36.91-28.25,38.47-29.47q18.63-14.28,37.23-28.58,17-13,33.91-26.1,14.26-11,28.49-22,9.56-7.42,19.07-14.9c1.6-1.26,1.32-4,0-5.32-1.58-1.58-3.73-1.27-5.33,0Q421.89,40.45,412.14,48c-9.35,7.26-17.58,13.62-26.76,20.69q-16.51,12.75-33.07,25.46Q334.18,108.08,316,122l-37.56,28.78-36.4,27.86-32.8,25.08L182,224.52l-19.18,14.64c-3,2.27-6.26,4.38-9,6.89-.12.11-.26.2-.38.3l1.9-.52c-11.42-1.24-22.9-2.06-34.36-2.71-20.68-1.15-41.69-1.87-62.32.41-8.21.91-16.66,2.15-24.23,5.64-5.41,2.51-11,7.71-9.48,14.31,1.82,7.93,12.65,10,19.33,11.19,10.41,1.88,21,2.48,31.48,3.85h.08l1.06.15,1.38.2c1.2.19,2.39.39,3.58.62a44.87,44.87,0,0,1,5.51,1.39c.35.12.69.26,1,.37.81.28-.61-.34.24.11.3.16.61.3.91.48s1.22,1,.3.13c.17.16.45.3.55.51.43.83-.32-.54-.07-.11.49.83-.1-.38,0-.12.32.9,0-.55.09-.88-.11.44.48-1,0-.07.24-.45.36-.32-.16.14-.32.29-.63.58-1,.86.7-.58-.65.45-.89.61A67.14,67.14,0,0,1,81,287.05c-7,3.52-14.3,6.62-21.47,9.88-3.82,1.73-7.62,3.49-11.39,5.34a58.55,58.55,0,0,0-10.84,6.24c-3.07,2.42-6.12,5.68-7.06,9.59a10,10,0,0,0,4.32,10.83c6.2,3.92,14.49.68,20.75-1.51S67.8,322.69,74,320.18c11.15-4.51,22.54-9.93,34.43-12.17,1.13-.21-.4,0,.68-.09.38,0,.76-.06,1.14-.07s.67,0,1,0c.76,0-.9-.24-.21,0a2.17,2.17,0,0,1,.53.13c.78.48-.81-.38,0,0a3.68,3.68,0,0,1-.44-.38c-.06-.1-.47-1.18-.31-.5s-.08-1.05-.06-.37c0,.43-.25.6.09-.32a4.7,4.7,0,0,0-.21.82c-.11.7.41-.62-.08.17-.21.33-.38.69-.6,1-.12.18-.24.36-.37.53-.54.8.33-.37-.17.24a45.07,45.07,0,0,1-4.85,4.92c-10.08,9-21.82,16.26-33,23.9-5.86,4-11.72,8.05-17.37,12.37-5.91,4.5-13,10.2-13.45,18.27a10.16,10.16,0,0,0,6.44,9.93c4.1,1.64,8.52.44,12.38-1.26,5.52-2.42,10.58-6.23,15.49-9.68C86,360,96.51,351.79,107.46,344.19a125,125,0,0,1,13.37-8.41c.44-.23.89-.45,1.35-.67.2-.1,1.28-.58.8-.38s.53-.2.72-.27a11.61,11.61,0,0,1,1.27-.39c.31-.08.64-.12,1-.2-.56.15-.81,0-.17.07.91.07-1-.27-.15,0,.42.12.05.15-.1-.06-.37-.56.24.47-.71-.46.54.53-.56-.81-.19-.23-.13-.21-.33-.92-.14-.18-.32-1.23,0-.51-.07-.07,0,.76.32-.95,0,.14-.09.26-.18.53-.26.79.11-.4.28-.52-.07.13s-.83,1.51-1.31,2.23l-.69,1c-.13.19-.28.37-.42.56l.06-.08c-.71.89-1.45,1.77-2.21,2.63-1.54,1.74-3.15,3.41-4.79,5.06-7.75,7.81-16.08,15.05-23.58,23.12a65.74,65.74,0,0,0-8.77,11.12c-1.9,3.2-3.5,7.14-2.55,10.91a9.64,9.64,0,0,0,8.44,7.09c3.78.38,7.53-1.33,10.66-3.28,8.58-5.35,15.6-13.21,22.53-20.46,3.22-3.37,6.4-6.78,9.81-10,.61-.57,1.23-1.13,1.87-1.68l1-.81c.74-.61-.51.32.5-.36.48-.33,1-.62,1.46-.92.83-.49-.22,0,0,0,.51-.13,1.17-.08-.12-.07.63,0-1.08-.44-.81-.28-.75-.43-.77-.61-.46-.31,0,0-.63-.88-.32-.39s-.44-.6-.12-.32a1.61,1.61,0,0,1,.17.65s0-1.06-.07-.39c0,.18,0,.36,0,.54s-.21,1.41,0,.32a22.35,22.35,0,0,1-.76,2.89c-.15.46-.32.92-.49,1.37-.09.23-.66,1.6-.41,1-.53,1.22-1.09,2.42-1.67,3.61-1.2,2.45-2.47,4.87-3.71,7.31-2.34,4.54-4.86,9.23-6.2,14.19-1.11,4.14-1.1,9.25,3.07,11.71,5.24,3.08,11,0,15.08-3.49,5.42-4.66,9.6-10.9,13.5-16.84,4-6.15,7.59-12.62,11.62-18.77a164.62,164.62,0,0,1,13.68-17.47q5.5-6.3,11.32-12.33c.35-.37.78-.72,1.09-1.12.46-.6,0,.34-.51.34.12,0,.36-.22.46-.28,7.71-4.35,15.17-9.21,22.74-13.79q24-14.54,48.06-29Q291.3,271,321.57,252.88q29.82-17.82,59.72-35.46c15.58-9.17,31.17-18.32,46.93-27.17,4.66-2.62,9.34-5.23,14.09-7.7,4.31-2.24.5-8.74-3.8-6.51Z"/></svg>