<svg id="Layer_1" data-name="Layer 1" xmlns="http://www.w3.org/2000/svg" viewBox="0 0 283.32 254.54"><defs><style>.cls-1{fill:#ff5a00;}</style></defs><path class="cls-1" d="M38.33,42.73A233.83,233.83,0,0,1,90.51,56.6a249.37,249.37,0,0,1,47.36,25A253.35,253.35,0,0,1,178.82,116,245.67,245.67,0,0,1,211.6,158.1a231.07,231.07,0,0,1,22.73,48.43c.7,2.12,1.38,4.26,2,6.4,1.19,3.95,7.39,2.27,6.19-1.71a237.48,237.48,0,0,0-21.87-50.46,254,254,0,0,0-32.59-44.33A262.39,262.39,0,0,0,146.77,80,251.88,251.88,0,0,0,99.34,53.33,239.1,239.1,0,0,0,46.67,37.59Q43.36,37,40,36.54a3.31,3.31,0,0,0-3.95,2.24c-.42,1.51.51,3.7,2.24,3.95Z"/><path class="cls-1" d="M216,207.34l24.27,10.33c2.3,1,4.63-.16,4.83-2.77l2.28-29.73a3.23,3.23,0,0,0-3.21-3.21,3.27,3.27,0,0,0-3.21,3.21l-2.29,29.73,4.84-2.77-24.27-10.34a3.33,3.33,0,0,0-4.4,1.16c-.79,1.34-.45,3.71,1.16,4.39Z"/></svg>